<?xml version="1.0" standalone="no"?>
<!DOCTYPE svg PUBLIC "-//W3C//DTD SVG 20010904//EN"
 "http://www.w3.org/TR/2001/REC-SVG-20010904/DTD/svg10.dtd">
<svg version="1.0" xmlns="http://www.w3.org/2000/svg"
 width="882.000000pt" height="882.000000pt" viewBox="0 0 882.000000 882.000000"
 preserveAspectRatio="xMidYMid meet">

<g transform="translate(0.000000,882.000000) scale(0.100000,-0.100000)"
fill="#000000" stroke="none">
<path d="M3231 7609 c-21 -17 -37 -20 -130 -18 -81 1 -116 -3 -149 -16 -39
-16 -68 -17 -245 -12 -157 4 -209 9 -232 21 -44 23 -142 21 -183 -4 -27 -16
-50 -20 -130 -20 -95 0 -99 -1 -125 -28 -30 -31 -36 -76 -11 -86 9 -3 78 -6
154 -6 l139 0 30 29 c33 32 70 32 106 1 11 -10 35 -27 54 -38 29 -18 37 -19
55 -7 18 11 91 14 121 5 6 -2 39 0 75 4 40 5 90 3 130 -4 36 -7 79 -14 95 -17
17 -3 41 -14 54 -24 32 -25 69 -24 91 3 17 21 18 21 43 5 24 -16 80 -17 634
-18 470 -1 614 1 635 11 22 10 33 10 60 -1 26 -11 104 -14 358 -15 179 0 332
-1 340 -2 8 -2 36 0 61 4 36 5 49 12 58 30 6 13 17 24 24 24 18 0 36 -20 31
-35 -3 -8 19 -15 73 -22 l78 -10 32 36 32 36 29 -32 c41 -44 76 -51 113 -24
17 13 50 36 75 52 24 17 44 36 44 42 0 7 -16 20 -35 29 -28 14 -40 15 -60 6
-18 -8 -31 -8 -48 0 -41 20 -93 23 -123 7 -54 -28 -102 -18 -95 19 1 5 -6 6
-15 2 -9 -4 -121 -9 -248 -11 -133 -3 -234 -9 -240 -15 -13 -13 -53 -13 -61 0
-4 6 -75 10 -180 10 -105 0 -176 -4 -180 -10 -9 -14 -162 -12 -188 2 -14 8
-61 11 -134 9 -105 -3 -112 -2 -135 21 -21 21 -31 23 -151 25 -90 1 -133 5
-144 15 -12 10 -57 12 -200 9 -106 -2 -183 1 -183 6 0 16 -64 33 -121 33 -39
-1 -61 -6 -78 -21z"/>
<path d="M1584 7521 c-47 -8 -100 -46 -174 -127 -48 -54 -50 -57 -34 -75 30
-34 65 -24 102 29 19 26 37 53 42 61 8 13 48 18 215 24 39 2 80 6 92 11 30 10
39 43 17 67 -15 17 -30 19 -118 18 -56 -1 -119 -5 -142 -8z"/>
<path d="M6150 7265 c-7 -8 -18 -15 -26 -15 -7 0 -22 -9 -33 -21 -40 -43 -187
-48 -231 -7 -19 18 -36 19 -288 18 -147 -1 -307 -1 -355 -1 -83 -1 -89 -2 -84
-20 5 -18 -2 -19 -147 -19 -103 0 -156 4 -164 12 -9 9 -26 9 -75 0 -36 -7 -87
-12 -115 -12 -50 0 -51 -1 -54 -32 l-3 -33 -70 0 -70 0 -3 33 -3 33 -39 -31
c-21 -17 -42 -40 -45 -50 -4 -11 -15 -20 -25 -20 -15 0 -19 -9 -22 -42 -3 -42
-4 -43 -47 -50 -79 -13 -99 17 -60 93 29 58 21 69 -48 69 -41 0 -67 6 -88 20
-16 11 -40 20 -51 20 -12 0 -27 7 -34 15 -17 20 -123 21 -139 1 -22 -27 -68
-29 -105 -7 -30 19 -49 21 -180 21 -133 0 -148 -2 -166 -20 -25 -25 -41 -25
-82 0 -42 25 -78 26 -85 2 -4 -15 -14 -18 -57 -18 -29 1 -60 7 -69 14 -16 14
-67 15 -462 11 -93 -1 -186 1 -205 5 -27 5 -40 2 -59 -14 -18 -16 -21 -24 -13
-32 20 -20 13 -45 -19 -72 -50 -42 -78 -29 -82 41 l-3 38 -64 5 c-58 4 -65 7
-68 28 -5 33 -37 47 -81 34 -20 -6 -116 -14 -214 -18 -129 -5 -177 -10 -177
-19 0 -7 -7 -18 -16 -26 -11 -9 -14 -22 -9 -48 4 -19 6 -84 5 -145 0 -61 -2
-211 -3 -334 -2 -123 -1 -225 2 -227 2 -3 3 -68 2 -144 -2 -139 -2 -140 23
-162 34 -29 34 -69 1 -97 -36 -31 -35 -99 1 -133 23 -21 25 -29 18 -64 -4 -22
-6 -84 -5 -138 2 -76 -1 -104 -13 -122 -11 -16 -16 -47 -16 -94 0 -38 -4 -72
-9 -75 -5 -3 -12 -18 -15 -32 -4 -15 -18 -41 -32 -59 -13 -17 -24 -35 -24 -38
0 -4 13 -20 30 -37 36 -37 39 -78 9 -106 -51 -46 -51 -52 -50 -433 1 -315 3
-360 18 -388 10 -18 21 -33 25 -33 15 0 8 -24 -16 -59 -23 -35 -24 -44 -29
-253 -5 -218 -5 -218 17 -218 12 0 27 9 34 20 7 11 18 20 26 20 10 0 13 -26
14 -120 0 -119 -6 -138 -34 -110 -7 7 -18 2 -33 -14 -19 -20 -23 -35 -23 -90
0 -49 4 -72 17 -86 15 -17 15 -21 1 -42 -11 -17 -15 -55 -17 -143 -2 -147 6
-170 57 -160 l34 6 0 -231 c0 -126 -2 -230 -5 -230 -4 0 -19 7 -36 15 -28 15
-30 14 -54 -9 -14 -14 -25 -35 -25 -46 0 -34 29 -80 50 -80 10 0 31 -5 45 -12
l25 -11 0 -146 c0 -80 -4 -151 -8 -158 -4 -7 -24 -19 -45 -28 -40 -17 -45 -31
-22 -75 8 -16 16 -51 16 -77 2 -42 -18 -198 -37 -290 -4 -18 -1 -33 5 -37 14
-9 14 -68 -1 -101 -9 -20 -9 -28 1 -38 9 -9 16 -7 30 12 16 21 24 23 61 18 30
-4 50 -1 66 10 14 9 34 13 47 9 16 -4 34 2 57 19 40 29 87 32 133 9 48 -24 67
-44 67 -71 0 -12 1 -23 3 -23 1 0 29 5 62 11 33 6 71 12 85 14 14 2 45 10 70
19 25 8 59 18 75 23 35 10 42 45 10 51 -30 6 -45 22 -45 47 0 59 90 72 208 30
43 -15 86 -24 115 -23 89 4 116 -66 39 -100 l-37 -15 31 -7 c17 -4 36 -10 42
-14 7 -4 20 7 33 29 16 26 26 34 38 29 9 -4 38 -8 65 -9 37 -1 54 -7 67 -24
24 -30 72 -43 96 -27 29 20 107 38 149 35 22 -1 52 1 68 6 19 5 36 4 47 -4 10
-6 20 -11 22 -11 2 0 19 29 37 65 36 71 36 91 0 169 -11 25 -20 56 -20 70 0
14 -5 28 -10 31 -10 6 -9 273 6 1225 1 118 3 247 4 287 1 65 3 75 31 104 26
28 34 31 67 26 22 -4 46 -17 60 -32 20 -24 22 -36 22 -145 0 -142 4 -147 103
-136 90 9 97 19 97 138 l0 98 36 40 c43 48 68 50 111 11 39 -36 47 -64 39
-144 -16 -164 -21 -179 -70 -235 -41 -47 -107 -69 -233 -79 -34 -2 -67 -11
-73 -18 -7 -8 -10 -48 -8 -102 l3 -88 300 0 300 0 3 235 c2 137 -1 250 -7 270
-6 19 -13 56 -16 82 -5 35 -14 56 -37 78 -58 59 -77 63 -272 67 -99 3 -188 9
-198 14 -9 5 -40 14 -67 19 -92 17 -152 69 -173 147 -31 115 -13 223 47 291
21 23 43 42 48 42 6 0 31 10 56 22 59 29 134 36 452 44 247 6 257 6 297 -15
l42 -21 0 -60 c0 -105 18 -100 -377 -100 l-336 0 -34 -26 c-37 -28 -41 -41
-15 -51 35 -14 86 -55 108 -87 13 -18 35 -38 51 -44 15 -6 105 -13 200 -15
169 -5 172 -5 225 -35 81 -47 136 -129 151 -227 5 -33 12 -220 16 -415 6 -340
7 -357 29 -403 24 -54 22 -67 -12 -67 -35 0 -46 -20 -46 -82 0 -32 -7 -72 -16
-91 -16 -34 -16 -36 15 -101 30 -64 31 -70 27 -175 -2 -60 -9 -119 -16 -130
-6 -12 -10 -36 -8 -54 3 -30 1 -32 -28 -29 -58 5 -70 -49 -19 -82 16 -10 25
-26 25 -42 0 -14 5 -34 10 -44 8 -15 6 -29 -9 -57 -11 -21 -27 -53 -36 -71
-13 -27 -19 -31 -29 -22 -11 8 -13 33 -10 98 2 48 7 100 9 116 4 23 -1 36 -21
57 l-26 27 1 354 c1 303 -1 356 -14 373 -17 21 -32 22 -354 17 -108 -2 -113
-3 -108 -22 11 -42 -48 -66 -89 -35 -37 28 -44 19 -44 -58 0 -84 8 -97 62 -97
145 0 279 -80 308 -186 15 -51 17 -173 5 -262 -8 -62 -3 -90 25 -122 26 -30
25 -69 -1 -122 -23 -46 -82 -108 -102 -108 -30 0 -57 31 -57 66 0 19 -9 60
-20 91 -17 49 -20 83 -20 231 0 96 -4 182 -10 192 -22 42 -147 69 -178 38 -8
-8 -12 -63 -12 -183 0 -123 -3 -174 -12 -184 -9 -8 -12 -45 -11 -119 2 -93 -1
-109 -17 -124 -18 -17 -18 -21 -5 -59 8 -22 24 -52 35 -66 11 -14 20 -31 20
-37 0 -6 14 -26 31 -43 36 -39 85 -45 114 -13 22 25 42 25 68 3 16 -15 41 -18
166 -18 161 -1 533 -21 569 -31 13 -4 22 -2 22 5 0 8 46 11 150 11 139 0 150
-1 160 -20 15 -29 95 -27 152 2 42 23 50 23 462 26 399 3 421 2 445 -16 14
-10 41 -27 59 -36 18 -9 31 -20 28 -24 -3 -5 -98 -7 -213 -6 -216 2 -225 0
-277 -43 -29 -24 -31 -25 -167 -18 l-138 8 -7 -28 c-10 -41 6 -60 54 -61 23 0
60 -7 82 -14 35 -11 45 -11 77 4 33 14 79 17 310 19 l272 3 29 27 c35 34 45
34 72 0 l21 -27 698 -1 c384 -1 705 1 713 4 8 3 37 25 63 49 l48 42 4 107 c3
92 6 110 24 129 25 27 23 -3 21 425 -2 327 -3 348 -21 370 -29 35 -54 16 -63
-47 -4 -27 -14 -67 -22 -89 -8 -22 -17 -71 -20 -109 -5 -57 -10 -74 -33 -98
-22 -23 -27 -38 -28 -81 -1 -61 -26 -104 -65 -109 -14 -2 -29 -13 -35 -25 -10
-23 -63 -39 -78 -24 -6 6 -1 31 12 65 12 31 21 74 21 95 0 27 7 44 25 61 14
13 25 35 25 49 0 14 7 58 15 96 8 39 15 103 15 144 0 53 4 77 15 85 13 9 11
19 -15 73 l-30 63 0 211 0 212 36 65 37 65 -22 16 c-21 16 -22 18 -18 351 3
323 6 371 28 412 8 15 7 24 -4 36 -9 10 -13 28 -10 43 3 15 0 30 -6 33 -7 5
-11 49 -11 120 0 100 2 115 20 131 11 10 20 24 20 31 0 7 -9 16 -20 19 -12 4
-20 15 -20 29 0 13 -7 29 -15 36 -11 10 -15 36 -15 111 l0 98 -27 3 c-26 3
-28 6 -25 43 2 27 12 49 30 68 23 25 27 36 25 84 -2 49 1 58 26 79 37 31 53
94 40 154 -6 24 -13 47 -17 50 -4 3 -17 19 -29 37 -19 26 -23 46 -23 101 0 44
5 75 15 88 8 10 15 27 15 36 0 10 9 22 20 28 25 13 25 25 3 48 -10 10 -26 33
-36 50 -18 32 -18 33 7 87 29 60 47 175 28 175 -22 0 -52 77 -52 135 0 32 -6
65 -14 78 -8 12 -22 38 -30 59 -15 34 -14 38 9 83 14 25 25 62 25 81 0 40 -35
94 -61 94 -22 0 -42 24 -37 46 3 16 29 36 86 66 l22 11 -2 466 c-2 364 -6 465
-15 464 -7 -2 -31 4 -53 13 -29 12 -42 24 -46 43 -3 14 -7 32 -10 39 -5 16
-34 15 -34 -2 0 -7 -10 -26 -21 -40 -20 -26 -25 -27 -71 -21 -47 7 -49 6 -40
-11 7 -12 7 -25 0 -37 -6 -12 -6 -23 2 -32 9 -11 8 -21 -3 -42 -8 -15 -20 -40
-26 -55 -13 -34 -31 -35 -68 -5 -15 13 -50 36 -77 51 -46 27 -48 30 -42 64 7
48 -7 62 -63 62 -35 0 -49 5 -59 20 -7 12 -28 22 -52 26 -22 4 -40 11 -40 16
0 11 -68 8 -92 -4 -10 -5 -18 -19 -18 -32 0 -23 -2 -24 -104 -24 l-105 -1 -31
39 c-35 44 -42 47 -60 25z m530 -470 c7 -8 9 -26 6 -42 -10 -45 25 -76 78 -71
108 11 160 -50 124 -148 -6 -19 -19 -36 -27 -40 -20 -8 -1889 -12 -2033 -5
-59 3 -112 11 -119 17 -14 15 -20 102 -8 132 17 45 53 50 353 48 255 -1 279 0
291 16 20 29 122 59 195 58 36 -1 75 1 86 5 32 10 42 -14 16 -36 -12 -9 -22
-19 -22 -22 0 -2 28 -8 63 -12 77 -10 745 -13 760 -3 8 5 7 11 -1 21 -10 12
-9 18 4 32 9 9 24 13 33 10 54 -22 80 -18 123 19 48 39 60 43 78 21z m-3349
-71 c35 -31 103 -37 439 -39 184 -1 347 -5 363 -9 15 -3 37 -2 48 5 51 27 109
-30 109 -107 0 -33 -4 -43 -23 -51 -15 -7 -29 -8 -38 -2 -20 13 -27 11 -50
-12 -20 -20 -30 -21 -276 -20 l-256 2 -28 -27 c-25 -24 -32 -26 -54 -16 -40
19 -190 16 -206 -4 -7 -8 -31 -25 -53 -36 -22 -11 -47 -29 -55 -40 -9 -10 -25
-20 -36 -22 -17 -2 -21 -12 -23 -57 -2 -30 -7 -58 -13 -63 -14 -15 -11 -62 4
-75 10 -7 157 -12 483 -13 l468 -3 23 -34 c31 -45 30 -92 -3 -130 l-26 -31
-203 0 -203 0 -6 -25 c-8 -30 -52 -40 -134 -31 -31 4 -76 8 -100 10 -24 2 -56
12 -72 24 -35 27 -120 31 -140 7 -7 -8 -17 -15 -23 -15 -6 0 -21 -10 -34 -22
l-23 -21 0 -519 0 -518 30 -32 c17 -17 30 -35 30 -39 0 -5 20 -14 44 -20 55
-14 80 -39 74 -74 -12 -59 86 -9 112 57 7 18 19 40 26 48 9 11 13 99 16 331 3
285 5 319 21 336 9 11 17 28 17 39 0 31 56 103 103 135 40 27 55 30 153 35
185 11 279 -29 336 -139 41 -80 50 -129 55 -312 4 -128 2 -155 -13 -182 -13
-26 -15 -40 -7 -71 16 -61 4 -231 -17 -252 -24 -24 -16 -109 17 -174 l24 -49
-27 -29 c-31 -32 -69 -36 -114 -13 -46 24 -52 45 -50 173 2 64 2 251 1 415
l-1 297 -30 0 c-32 0 -37 9 -18 39 9 15 8 24 -4 44 -24 36 -78 57 -146 57 -71
0 -100 -18 -131 -85 -26 -56 -26 -80 0 -139 24 -54 19 -123 -12 -168 -22 -31
-17 -50 18 -73 24 -16 25 -18 20 -118 -8 -167 -44 -280 -114 -358 -25 -27 -57
-46 -114 -68 l-81 -31 -323 0 c-302 0 -328 1 -382 21 -71 25 -111 45 -141 73
-25 22 -68 99 -84 151 -6 16 -14 163 -19 325 -11 386 -13 403 -51 435 -25 21
-39 25 -99 25 -98 0 -126 -16 -134 -77 -3 -27 -10 -56 -16 -65 -5 -11 -9 -186
-9 -422 0 -222 -3 -418 -6 -435 l-6 -31 -79 0 c-69 0 -80 2 -93 22 -14 20 -16
81 -16 465 0 284 4 444 10 448 6 3 10 18 10 33 0 15 7 40 15 56 8 15 15 36 15
46 0 23 61 102 96 125 54 35 158 54 242 45 117 -13 147 -25 205 -84 87 -87 96
-134 97 -491 l0 -280 33 -65 c44 -87 86 -109 208 -110 82 0 86 1 97 25 17 37
17 1215 0 1262 l-12 33 -460 0 c-398 0 -462 -2 -476 -15 -24 -21 -115 -31
-135 -15 -24 20 -18 56 13 82 16 13 43 49 62 80 18 31 43 59 54 62 12 3 229 6
484 6 l462 0 0 165 0 165 -25 10 c-39 15 -54 3 -52 -38 l2 -37 -86 -3 c-89 -3
-158 16 -201 55 -15 14 -60 17 -295 20 -153 2 -285 6 -294 8 -50 16 -49 169 0
191 9 4 290 8 624 9 334 1 611 6 615 10 4 3 8 11 8 16 1 5 2 14 3 19 2 16 43
12 62 -6z m3517 -418 c45 -23 58 -58 44 -114 -21 -79 -30 -82 -205 -77 -84 2
-157 1 -163 -3 -18 -11 -31 -44 -38 -95 -9 -59 -37 -103 -96 -149 -67 -52
-128 -70 -260 -75 -63 -3 -123 -9 -132 -14 -10 -6 -19 -5 -23 1 -9 15 -71 12
-84 -4 -7 -9 -11 -40 -9 -78 l3 -63 390 0 c489 0 475 -5 475 158 0 75 3 87 25
111 35 38 90 36 128 -3 26 -28 27 -33 27 -135 0 -98 -2 -111 -30 -165 -34 -68
-66 -97 -124 -112 -22 -6 -57 -16 -76 -22 -22 -7 -175 -13 -425 -17 l-390 -5
0 -80 c0 -73 2 -80 24 -91 16 -8 125 -12 370 -12 191 0 365 -4 386 -8 54 -10
125 -47 156 -81 40 -44 79 -118 79 -152 0 -19 8 -35 20 -44 12 -8 34 -35 50
-60 33 -53 76 -67 140 -48 48 14 47 14 60 -9 8 -14 7 -26 -2 -42 -7 -13 -13
-24 -14 -25 0 -1 -27 2 -60 7 -42 7 -73 6 -107 -3 -47 -12 -50 -14 -68 -67
-10 -30 -19 -61 -19 -68 0 -21 -47 -111 -77 -146 -30 -36 -97 -73 -168 -92
-64 -18 -1628 -21 -1685 -3 -19 5 -43 12 -53 14 -35 8 -128 60 -142 80 -67 91
-79 119 -86 194 -4 42 -11 91 -15 109 -3 19 -2 50 4 70 6 21 14 67 17 103 9
101 73 190 175 245 32 18 64 19 400 22 201 1 375 4 387 7 40 9 53 33 53 93 -1
97 24 91 -381 95 -448 5 -505 13 -597 92 -48 42 -53 61 -59 222 l-4 123 27 25
c43 40 120 29 143 -22 6 -13 11 -59 11 -103 0 -98 9 -123 53 -143 31 -15 82
-17 415 -17 426 0 392 -7 392 78 0 77 1 76 -182 83 -255 9 -339 44 -405 165
-18 32 -33 74 -33 92 0 71 -2 72 -184 72 -156 0 -163 1 -183 23 -38 41 -41
136 -5 154 10 4 384 10 832 13 448 3 918 6 1043 8 181 2 234 -1 255 -12z m336
-1577 c-8 -13 -24 -1 -24 18 0 13 3 13 15 3 8 -7 12 -16 9 -21z m-2673 -361
c18 -21 27 -38 23 -48 -4 -8 -7 -25 -7 -37 1 -31 -21 -29 -42 5 -9 15 -31 39
-48 53 -38 32 -32 59 13 59 22 0 40 -9 61 -32z m-2395 -225 c23 -15 24 -20 24
-138 0 -106 2 -124 19 -139 59 -53 250 -77 291 -36 18 18 20 33 20 155 0 133
0 135 26 151 39 26 95 20 121 -13 21 -26 23 -38 23 -152 0 -158 2 -161 109
-161 124 1 193 27 232 87 15 23 19 48 19 130 l0 102 30 16 c39 20 54 19 84 -7
26 -23 26 -26 27 -163 2 -242 -20 -273 -242 -344 -19 -6 -77 -11 -129 -11 -73
0 -97 -4 -112 -17 -23 -20 -23 -45 0 -73 16 -20 28 -22 117 -24 205 -4 324
-87 366 -256 29 -116 14 -270 -34 -351 -31 -51 -74 -99 -88 -99 -7 0 -20 -7
-29 -15 -44 -40 -114 -49 -415 -52 -275 -4 -294 -3 -360 18 -38 12 -90 33
-114 47 -45 26 -101 93 -101 121 0 9 -6 25 -14 36 -29 42 -44 198 -26 259 37
125 46 142 96 191 70 69 155 99 283 100 85 1 95 3 112 24 22 27 24 49 5 74
-11 14 -30 17 -111 17 -104 0 -145 8 -240 47 -67 28 -135 97 -135 138 0 13 -4
27 -10 30 -6 4 -10 61 -10 139 0 131 0 132 28 158 43 41 88 44 138 11z m3779
-52 c28 -10 61 -23 75 -29 43 -17 96 -84 126 -157 l28 -70 0 -275 0 -275 -31
-65 c-32 -70 -86 -126 -131 -135 -81 -17 -77 -10 -80 -122 l-3 -102 34 -6 c65
-12 669 0 707 15 105 39 130 65 130 136 0 63 -13 73 -110 84 -111 11 -133 17
-205 51 -61 29 -115 76 -115 101 0 7 -6 22 -14 33 -15 22 -37 87 -43 125 -2
14 -4 111 -4 215 -1 200 8 261 49 342 49 95 160 153 293 153 85 -1 181 -46
234 -110 80 -96 88 -147 92 -603 3 -323 1 -381 -12 -407 -8 -16 -15 -38 -15
-50 0 -28 -53 -130 -82 -157 -13 -12 -54 -38 -91 -57 l-68 -36 -384 0 c-340 0
-384 -2 -389 -16 -12 -31 -7 -211 7 -221 7 -6 128 -11 292 -12 412 -4 526 -8
538 -20 6 -6 20 -11 32 -11 34 0 118 -72 147 -125 25 -46 27 -59 27 -171 1
-129 -13 -196 -37 -172 -7 7 -12 20 -12 29 0 34 -12 49 -39 49 -21 0 -34 -9
-52 -37 -40 -61 -47 -54 -41 45 7 128 -1 157 -48 187 l-40 25 -389 0 -389 0
-7 -84 c-4 -46 -6 -116 -4 -157 l4 -73 -34 -23 c-29 -20 -42 -23 -80 -17 -61
9 -65 12 -46 41 22 32 10 44 -50 51 -34 3 -50 11 -62 29 -15 22 -14 25 7 48
13 14 29 25 36 25 19 0 44 41 44 71 0 20 -11 34 -42 55 l-41 29 -333 3 -333 3
-41 -26 c-22 -14 -41 -26 -41 -28 -1 -1 -5 -60 -8 -132 l-6 -129 -34 -23 c-44
-30 -85 -29 -116 2 -24 23 -25 29 -25 167 0 192 23 251 119 310 67 42 128 48
511 54 289 5 370 9 388 20 20 13 22 22 22 103 0 141 35 130 -410 133 l-375 3
-60 34 c-77 43 -90 55 -131 119 -51 79 -59 150 -59 537 0 377 11 502 53 575
62 109 112 134 267 133 89 -1 119 -5 156 -22 75 -34 138 -120 139 -188 1 -15
7 -39 15 -53 11 -19 14 -70 14 -225 0 -155 -3 -206 -14 -225 -8 -14 -14 -35
-15 -48 0 -53 -92 -182 -130 -182 -8 0 -29 -9 -46 -19 -17 -10 -54 -22 -82
-25 -29 -3 -76 -9 -104 -12 -29 -3 -59 -11 -65 -16 -8 -7 -13 -36 -13 -75 0
-59 3 -67 30 -93 16 -15 42 -30 57 -33 16 -3 46 -10 68 -16 24 -6 165 -11 353
-11 366 0 352 -4 352 99 0 33 3 66 6 74 8 22 -31 57 -64 57 -37 0 -104 49
-138 100 -21 32 -29 60 -36 128 -19 177 -22 335 -8 432 6 41 11 90 10 108 -1
45 42 131 88 173 86 81 221 110 327 70z m-4260 -211 c3 -5 1 -10 -4 -10 -6 0
-11 5 -11 10 0 6 2 10 4 10 3 0 8 -4 11 -10z m1494 -1251 c37 -13 61 -53 61
-103 0 -26 -7 -40 -31 -60 l-31 -26 -248 0 c-239 0 -250 -1 -260 -20 -14 -26
0 -52 44 -79 30 -19 49 -21 185 -21 149 0 153 -1 211 -30 82 -41 100 -78 100
-198 0 -120 -15 -142 -135 -202 l-90 -44 -365 0 c-346 1 -368 2 -430 23 -87
29 -119 50 -155 101 -29 42 -30 47 -36 194 -5 141 -4 153 15 174 11 12 24 22
30 22 23 0 97 -44 121 -72 23 -27 25 -38 25 -119 0 -83 1 -90 25 -105 47 -31
101 -35 405 -36 384 -1 430 6 430 63 0 45 -28 53 -200 60 -85 3 -174 11 -198
16 -44 11 -102 56 -102 80 0 8 -6 24 -14 36 -8 12 -17 48 -21 79 -3 31 -12 61
-18 66 -7 6 -113 12 -238 13 -249 4 -259 7 -259 65 0 18 -4 36 -10 39 -17 10
-12 23 25 60 l36 35 548 0 c375 0 558 -3 580 -11z m-1269 -44 c0 -3 -16 -5
-35 -5 -36 0 -48 16 -17 23 16 3 52 -9 52 -18z m-214 -962 c-10 -10 -19 5 -10
18 6 11 8 11 12 0 2 -7 1 -15 -2 -18z m2149 -93 c3 -5 -3 -10 -15 -10 -12 0
-18 5 -15 10 3 6 10 10 15 10 5 0 12 -4 15 -10z m1500 -41 c10 -15 -1 -23 -20
-15 -9 3 -13 10 -10 16 8 13 22 13 30 -1z m1134 -90 c12 -15 29 -20 77 -22 53
-1 68 3 101 26 32 22 50 27 99 27 71 0 94 -11 74 -34 -11 -14 -10 -20 5 -36
15 -16 16 -23 6 -33 -10 -9 -14 -8 -22 6 -14 25 -88 23 -122 -3 -23 -18 -40
-20 -173 -20 l-147 0 -63 -35 c-69 -39 -89 -42 -122 -19 -30 21 -28 28 16 47
46 21 124 67 149 88 49 43 91 46 122 8z m624 -26 c48 -2 87 -9 87 -14 0 -10
-233 -13 -243 -2 -14 13 14 30 41 25 15 -3 66 -7 115 -9z m-183 -8 c0 -8 -6
-15 -14 -15 -8 0 -16 7 -20 15 -4 10 1 15 14 15 11 0 20 -7 20 -15z"/>
<path d="M5262 6108 c-18 -18 -14 -56 8 -88 39 -55 83 -60 517 -60 213 1 408
5 432 9 66 13 95 40 99 91 2 28 -1 46 -10 51 -22 14 -1032 11 -1046 -3z"/>
<path d="M5340 5080 l-225 -5 -63 -33 -63 -33 -34 21 c-73 45 -106 -19 -104
-203 2 -162 5 -175 57 -212 l44 -30 841 0 842 0 46 32 c26 18 50 40 54 50 4
10 10 79 13 153 6 170 -2 193 -79 235 l-54 29 -525 1 c-289 0 -626 -2 -750 -5z
m570 -135 c11 -13 62 -15 353 -15 336 0 341 0 364 -22 32 -30 33 -118 1 -148
-22 -20 -31 -20 -816 -20 -561 0 -806 3 -832 11 -60 18 -78 84 -40 147 l20 32
444 0 c382 0 445 2 456 15 7 8 18 15 25 15 7 0 18 -7 25 -15z"/>
<path d="M2265 3328 c-91 -9 -118 -22 -131 -60 -3 -12 1 -27 12 -39 16 -18 34
-19 386 -19 239 0 368 4 368 10 0 6 -7 10 -16 10 -9 0 -28 6 -42 14 -15 7 -40
18 -57 22 -21 7 -31 17 -34 34 -1 14 -8 28 -15 32 -15 10 -361 7 -471 -4z"/>
<path d="M2158 3026 c-30 -23 -23 -62 16 -85 32 -20 46 -21 385 -21 398 0 411
2 411 64 0 32 -2 33 -54 46 -33 8 -77 10 -113 7 -72 -8 -569 -10 -603 -2 -14
3 -33 -1 -42 -9z"/>
<path d="M4881 3906 c-19 -20 -24 -40 -28 -107 -8 -108 -7 -109 152 -109 118
0 122 1 134 24 8 14 11 44 8 77 -10 127 -24 139 -151 139 -85 0 -94 -2 -115
-24z"/>
<path d="M5765 3921 c-80 -9 -121 -31 -129 -72 -10 -51 -7 -124 6 -137 8 -8
57 -12 155 -12 l143 0 0 83 c0 81 -1 84 -33 115 -35 34 -36 34 -142 23z"/>
<path d="M6532 3923 c-26 -2 -52 -13 -67 -27 -23 -21 -25 -30 -25 -110 l0 -86
145 0 c132 0 145 2 155 19 23 44 5 144 -33 179 -24 23 -96 33 -175 25z"/>
<path d="M4857 3503 c-12 -12 -8 -211 4 -219 7 -4 46 -7 88 -7 102 0 171 33
195 93 18 46 21 93 6 121 -10 17 -23 19 -149 19 -76 0 -141 -3 -144 -7z"/>
<path d="M5640 3495 c-9 -11 -11 -41 -8 -101 4 -83 6 -87 38 -115 31 -27 38
-29 125 -29 l92 0 26 38 c16 23 29 64 37 110 18 109 14 112 -160 112 -110 0
-140 -3 -150 -15z"/>
<path d="M6439 3488 c-15 -28 -3 -127 18 -150 33 -37 101 -58 183 -58 60 0 81
4 91 17 19 22 26 178 9 198 -10 12 -41 15 -151 15 -131 0 -139 -1 -150 -22z"/>
<path d="M1328 7073 c-26 -27 -26 -32 -32 -198 -8 -227 -8 -230 -28 -252 -26
-29 -25 -109 2 -123 13 -7 20 -21 20 -40 0 -19 -7 -33 -20 -40 -18 -10 -20
-21 -20 -135 0 -114 2 -125 20 -135 19 -10 20 -21 20 -174 0 -148 -2 -166 -20
-189 -28 -36 -28 -112 1 -128 19 -10 21 -18 17 -104 -2 -71 -7 -97 -20 -112
-16 -17 -18 -43 -18 -226 l0 -206 26 -28 26 -28 -6 -450 c-7 -525 -6 -507 -28
-532 -16 -17 -18 -42 -18 -203 0 -160 2 -184 17 -195 12 -9 16 -25 15 -58 -2
-25 2 -48 8 -52 8 -5 10 -178 10 -581 -1 -412 1 -579 9 -588 16 -19 60 -26 88
-13 l23 10 0 423 0 423 46 37 c41 34 45 41 39 68 -8 38 -8 68 1 125 4 26 1 59
-6 82 -10 28 -10 45 -3 62 9 19 6 30 -12 60 -21 37 -23 81 -4 93 5 3 9 127 9
275 0 235 2 273 17 295 15 24 15 27 -1 55 -15 25 -17 53 -15 189 2 152 1 161
-19 183 -18 19 -22 35 -22 96 0 40 5 81 10 91 8 15 5 31 -15 69 -30 60 -31 76
-5 140 16 41 17 56 8 81 -16 49 -3 137 33 210 27 57 30 69 20 96 -6 17 -11 75
-11 129 0 88 -2 101 -22 122 l-21 23 21 23 c23 24 30 81 12 92 -5 3 -10 15
-10 26 0 10 -4 27 -9 37 -31 61 -35 115 -38 502 -3 313 -6 401 -17 425 -15 31
-12 158 4 180 18 25 18 45 -1 69 -26 33 -49 33 -81 -1z"/>
<path d="M7387 6813 c-10 -9 -9 -38 3 -69 10 -26 11 -26 30 -9 24 22 26 48 4
69 -17 17 -27 20 -37 9z"/>
<path d="M7456 6223 c-2 -10 -7 -68 -11 -129 l-6 -111 26 -17 c14 -9 30 -28
35 -42 11 -29 40 -31 63 -6 23 25 21 54 -7 110 -14 27 -26 76 -31 117 -4 39
-12 76 -17 83 -15 18 -46 15 -52 -5z"/>
<path d="M7449 5453 c-6 -17 -11 -152 -12 -342 -2 -290 -1 -314 16 -325 14 -9
21 -6 42 19 13 17 24 38 25 47 0 9 10 33 21 53 21 34 22 48 20 266 -1 250 -7
280 -57 299 -37 15 -43 13 -55 -17z"/>
<path d="M7442 4698 c-17 -17 -17 -859 0 -876 21 -21 47 -14 53 16 3 15 14 50
25 77 35 96 40 142 40 384 0 159 4 249 11 265 11 23 8 31 -30 80 -51 66 -74
79 -99 54z"/>
<path d="M7472 3208 c-7 -7 -12 -24 -12 -38 0 -14 -5 -41 -11 -60 -17 -54 -21
-654 -5 -676 18 -24 33 -11 41 39 10 55 44 147 56 147 22 0 40 75 34 140 -3
36 -8 143 -11 239 -4 134 -8 178 -21 197 -16 26 -51 32 -71 12z"/>
<path d="M1574 2385 c-3 -8 -3 -19 1 -25 11 -18 25 -11 25 15 0 27 -17 34 -26
10z"/>
<path d="M1487 2323 c-4 -3 -7 -19 -7 -35 0 -34 25 -47 48 -25 13 13 13 21 4
42 -11 24 -31 32 -45 18z"/>
<path d="M3742 1283 c-100 -3 -128 -7 -155 -23 -25 -16 -50 -20 -115 -20 -90
0 -104 -9 -85 -53 10 -22 11 -22 354 -25 513 -3 562 -5 566 -19 3 -9 10 -10
22 -3 19 10 81 -7 81 -22 0 -12 108 -10 115 2 3 6 19 10 34 10 15 0 32 5 39
12 9 9 21 8 51 -2 64 -21 114 1 126 56 6 31 5 32 -37 36 -24 3 -52 1 -64 -3
-11 -4 -28 -3 -38 3 -12 7 -27 6 -48 -3 -18 -7 -66 -12 -117 -11 -47 1 -139 2
-203 1 -120 0 -205 16 -237 45 -19 17 -117 24 -289 19z"/>
<path d="M1848 1239 c-10 -5 -18 -18 -18 -28 0 -36 31 -49 125 -53 89 -3 90
-3 93 21 4 27 -21 53 -43 45 -7 -3 -29 2 -50 10 -43 18 -82 20 -107 5z"/>
<path d="M3224 1235 c-15 -11 -15 -14 1 -38 32 -50 86 -47 104 5 6 17 8 34 5
37 -11 11 -94 8 -110 -4z"/>
<path d="M2223 1204 c-7 -3 -13 -12 -13 -20 0 -11 10 -14 38 -12 25 2 37 8 37
18 0 15 -39 24 -62 14z"/>
</g>
</svg>
